<svg version="1.1" xmlns="http://www.w3.org/2000/svg" width="25" height="25" viewBox="0 0 32 32">
        <path d="M10.815 21.852c-0.171 0-0.341-0.065-0.472-0.195-0.26-0.256-0.26-0.683 0-0.943l10.369-10.365c0.259-0.256 0.683-0.256 0.943 0 0.259 0.256 0.259 0.687 0 0.943l-10.369 10.365c-0.129 0.129-0.3 0.195-0.471 0.195zM21.185 21.852c-0.171 0-0.341-0.065-0.472-0.195l-10.369-10.367c-0.26-0.256-0.26-0.687 0-0.943s0.683-0.256 0.943 0l10.369 10.365c0.26 0.26 0.26 0.687 0 0.943-0.129 0.131-0.299 0.196-0.471 0.196zM16 31.333c-8.455 0-15.333-6.88-15.333-15.333 0-8.456 6.879-15.333 15.333-15.333s15.333 6.877 15.333 15.333c0 8.453-6.879 15.333-15.333 15.333zM16 2c-7.72 0-14 6.279-14 14 0 7.719 6.28 14 14 14s14-6.281 14-14c0-7.721-6.28-14-14-14z"></path>
        </svg>